<svg version="1.1" id="Layer_1" xmlns="http://www.w3.org/2000/svg" xmlns:xlink="http://www.w3.org/1999/xlink" x="0px" y="0px"
	 width="100%" viewBox="0 0 164 164" enable-background="new 0 0 164 164" xml:space="preserve">
<path fill="#FBFBFC" opacity="1.000000" stroke="none" 
	d="
M74.000000,1.000001 
	C79.688042,1.000000 85.376083,1.000000 91.257065,1.362090 
	C93.644394,2.257064 95.823387,2.866540 98.035492,3.311370 
	C132.486801,10.239163 157.582764,36.470703 163.168304,71.312210 
	C163.323639,72.281120 164.369431,73.107277 165.000000,74.000000 
	C165.000000,79.688042 165.000000,85.376083 164.637573,91.258202 
	C163.926498,92.165024 163.348770,92.851051 163.262085,93.594345 
	C159.116745,129.137390 129.777817,158.645233 94.187637,163.244690 
	C93.396027,163.347000 92.726479,164.393784 92.000000,165.000000 
	C86.311958,165.000000 80.623917,165.000000 74.742943,164.637909 
	C72.355614,163.742920 70.176620,163.133377 67.964508,162.688629 
	C33.507336,155.761047 8.426812,129.545685 2.831715,94.687820 
	C2.676182,93.718842 1.630568,92.892731 1.000000,92.000000 
	C1.000000,86.311958 1.000000,80.623917 1.362416,74.741760 
	C2.072750,73.834679 2.649051,73.148361 2.735799,72.404922 
	C6.887158,36.826851 36.267418,7.344510 71.812378,2.755279 
	C72.603928,2.653081 73.273521,1.606210 74.000000,1.000001 
M67.573883,56.151646 
	C68.050652,56.454456 68.527428,56.757271 69.044006,57.690849 
	C69.769463,57.993973 70.494919,58.297096 71.220375,58.600220 
	C71.528336,57.212772 71.836304,55.825329 72.144272,54.437889 
	C71.097443,54.606575 70.050621,54.775257 68.346741,54.975204 
	C67.910118,54.957062 67.473495,54.938915 66.937241,54.149734 
	C65.328125,54.137081 62.684715,53.561562 62.322369,54.227394 
	C61.536034,55.672344 61.263443,58.077431 61.971725,59.494843 
	C63.020210,61.593071 65.103111,63.174400 66.051308,65.090652 
	C65.066010,65.696724 64.080711,66.302795 63.022099,66.405869 
	C62.792686,66.186798 62.563274,65.967728 62.333862,65.748650 
	C62.499187,66.211792 62.664513,66.674942 62.867214,67.638466 
	C62.932770,67.792351 62.998322,67.946236 63.113895,68.536873 
	C63.113895,68.536873 63.241299,68.957626 62.659298,69.141068 
	C62.377277,69.627457 62.095253,70.113853 61.813232,70.600243 
	C62.561443,70.722137 63.309658,70.844032 64.880486,71.012604 
	C66.973267,70.195152 70.542122,69.714600 70.823082,68.483604 
	C71.278023,66.490387 69.643517,63.976803 68.754723,61.737122 
	C68.246147,60.455540 67.467781,59.281013 66.974113,57.402325 
	C67.004852,56.952831 67.035583,56.503338 67.055031,56.010094 
	C67.055031,56.010094 67.010834,56.019463 67.573883,56.151646 
M76.878555,89.409103 
	C76.792572,91.696465 76.298981,94.258118 80.766937,94.250732 
	C82.763496,93.125290 85.919586,92.374596 86.437744,90.771347 
	C86.980034,89.093437 85.013123,86.585144 84.085808,84.464828 
	C83.842697,83.908951 83.387573,83.445793 83.244423,82.261284 
	C84.783829,81.075119 86.323235,79.888962 87.713448,78.129623 
	C86.354095,75.169083 83.973465,77.266022 81.830193,76.349594 
	C80.347969,76.517914 77.651123,76.491028 77.587433,76.887337 
	C77.258827,78.931984 77.121178,81.268555 77.836411,83.154572 
	C78.760307,85.590828 80.553963,87.697266 81.322670,89.678398 
	C80.045013,89.428497 78.767357,89.178596 76.878555,89.409103 
M68.656776,90.370995 
	C69.784523,90.000885 71.507172,89.960533 71.929176,89.199226 
	C73.227661,86.856705 68.399734,77.662163 65.636765,76.712471 
	C65.483612,76.659828 65.316475,76.647881 65.159187,75.977371 
	C64.435600,75.706253 63.712021,75.435135 62.125156,75.004227 
	C61.403343,75.615936 60.047741,76.238754 60.058239,76.837631 
	C60.157845,82.519547 60.489574,88.197403 60.754501,93.876427 
	C61.295185,94.229713 61.835873,94.583008 62.376556,94.936295 
	C64.259537,93.289848 66.142525,91.643402 67.973923,89.993103 
	C67.973923,89.993103 67.976547,90.045769 68.656776,90.370995 
M56.629013,111.950874 
	C47.329750,109.027954 38.030491,106.105034 28.454926,103.095268 
	C31.463539,88.586464 34.165012,74.564072 37.383156,60.661274 
	C38.317520,56.624691 37.405933,53.959747 34.101898,51.195171 
	C28.979300,70.824120 23.923700,90.196335 18.731230,110.093018 
	C36.035984,112.785057 52.840591,115.399292 69.645203,118.013527 
	C69.762253,117.425354 69.879311,116.837189 69.996361,116.249016 
	C65.798843,114.880226 61.601318,113.511436 56.629013,111.950874 
M121.567924,108.082642 
	C113.015503,110.794968 104.463089,113.507294 95.910675,116.219620 
	C96.055161,116.825737 96.199646,117.431854 96.344139,118.037971 
	C113.196106,115.392578 130.048065,112.747177 147.185745,110.056931 
	C141.961960,90.077576 136.917023,70.782234 131.796631,51.198307 
	C128.220123,54.128838 127.295341,57.035282 128.640884,60.908295 
	C129.669144,63.867970 129.999924,67.070068 130.639557,70.164627 
	C132.887573,81.040558 135.134995,91.916611 137.438538,103.063065 
	C132.115219,104.773041 127.232841,106.341377 121.567924,108.082642 
M53.937054,106.529762 
	C59.112972,108.534668 64.288895,110.539566 69.464813,112.544472 
	C69.683418,112.064095 69.902031,111.583725 70.120636,111.103355 
	C68.742592,110.368332 67.382271,109.597557 65.983482,108.904388 
	C59.426624,105.655128 52.945709,102.231056 46.256313,99.280586 
	C43.247250,97.953377 42.476719,96.356880 42.937138,93.222214 
	C44.653488,81.536713 46.086182,69.809845 47.706203,58.109707 
	C48.197407,54.562149 48.422813,51.230614 44.375256,48.863194 
	C42.833103,57.434139 41.348442,65.725128 39.848061,74.013260 
	C38.346050,82.310402 36.828339,90.604713 35.274143,99.138390 
	C41.518185,101.591476 47.379391,103.894157 53.937054,106.529762 
M113.472916,105.952843 
	C117.956833,104.177582 122.371368,102.188698 126.948982,100.701897 
	C130.021347,99.703979 130.582718,98.098969 130.006073,95.156258 
	C127.958763,84.708672 126.113884,74.221428 124.191391,63.749382 
	C123.288147,58.829281 122.382797,53.909565 121.478401,48.989677 
	C120.838547,48.973862 120.198692,48.958046 119.558838,48.942230 
	C119.083649,51.678410 117.951317,54.488026 118.247482,57.138000 
	C119.503929,68.380569 121.003632,79.604744 122.795380,90.774536 
	C123.553467,95.500496 122.832222,98.316933 117.836853,100.230675 
	C111.407608,102.693741 105.390717,106.233116 99.196205,109.308891 
	C99.425606,109.844101 99.655014,110.379318 99.884415,110.914536 
	C104.166702,109.334442 108.448990,107.754349 113.472916,105.952843 
M54.915276,87.348015 
	C55.650414,75.723610 56.495148,64.104218 57.027348,52.470535 
	C57.132584,50.170082 56.036049,47.814655 55.493729,45.484581 
	C53.243214,53.169407 52.165798,60.565311 51.139015,67.968231 
	C50.111332,75.377647 49.042599,82.783783 48.208057,90.215637 
	C48.029373,91.806870 48.229446,94.442307 49.187954,95.003616 
	C58.140350,100.246147 67.296295,105.141098 76.393303,110.136673 
	C76.635162,109.782166 76.877014,109.427650 77.118874,109.073143 
	C75.921402,108.138321 74.751266,107.165749 73.521683,106.275269 
	C68.402054,102.567581 63.387817,98.693558 58.083370,95.270340 
	C55.281200,93.461967 54.209648,91.398193 54.915276,87.348015 
M113.603088,96.971382 
	C117.618706,95.640862 118.456390,92.998421 117.691963,88.944962 
	C116.463516,82.431007 115.846703,75.802879 114.927101,69.229202 
	C113.844299,61.488838 112.714218,53.755089 111.604645,46.018471 
	C111.078835,45.993477 110.553024,45.968479 110.027214,45.943485 
	C109.629440,48.206924 108.796120,50.491936 108.906952,52.730194 
	C109.482002,64.343246 110.150856,75.956612 111.114540,87.542625 
	C111.427147,91.301132 110.510574,93.677582 107.241493,95.748260 
	C102.060448,99.029984 97.215134,102.841728 92.227776,106.429230 
	C92.537781,106.974457 92.847786,107.519691 93.157784,108.064919 
	C99.746162,104.480865 106.334541,100.896812 113.603088,96.971382 
M98.809662,63.882114 
	C98.809662,66.162651 98.809662,68.443192 98.809662,71.166435 
	C100.508331,71.008255 102.044533,70.865204 103.953392,70.687454 
	C103.262131,64.444901 102.622200,58.665955 101.982269,52.887009 
	C101.441643,52.729053 100.901009,52.571095 100.360382,52.413139 
	C98.468491,55.583725 96.576599,58.754311 94.548340,62.153423 
	C92.769257,59.042217 91.171387,56.247921 89.105331,52.634880 
	C88.049942,57.668949 87.196907,61.737820 86.112984,66.907990 
	C87.701317,65.457031 88.430801,64.790627 89.976822,63.378319 
	C91.036308,65.297615 91.977219,67.002106 93.145424,69.118347 
	C95.026367,66.046761 96.234001,64.074699 97.441628,62.102634 
	C97.905869,62.444443 98.370117,62.786255 98.809662,63.882114 
M102.288086,92.788078 
	C103.815163,90.805298 106.558830,89.134651 104.875244,86.831734 
	C102.237297,87.519913 99.891510,88.981445 98.418152,88.363358 
	C93.151047,86.153740 95.939995,81.701782 96.792694,77.635025 
	C92.768616,80.255264 91.123451,85.547874 93.293297,89.252884 
	C95.038704,92.233185 97.825371,93.975342 102.288086,92.788078 
M77.880951,116.990517 
	C82.548218,117.116959 87.215485,117.243393 91.732628,117.365768 
	C89.124916,114.464890 85.439293,112.966461 80.916458,113.668701 
	C77.892426,114.138229 75.302628,115.314812 73.715752,117.796898 
	C73.961205,118.173836 74.206665,118.550781 74.452118,118.927719 
	C75.360374,118.402832 76.268631,117.877937 77.880951,116.990517 
M77.362328,70.441910 
	C79.590981,69.158493 81.317459,60.904140 79.507271,59.516136 
	C79.183090,59.267563 77.125526,60.292328 77.078979,60.833336 
	C76.826019,63.773247 76.952675,66.745819 77.362328,70.441910 
z"/>
<path fill="#020202" opacity="1.000000" stroke="none" 
	d="
M73.531342,1.000001 
	C73.273521,1.606210 72.603928,2.653081 71.812378,2.755279 
	C36.267418,7.344510 6.887158,36.826851 2.735799,72.404922 
	C2.649051,73.148361 2.072750,73.834679 1.362416,74.273819 
	C1.000000,49.739799 1.000000,25.479595 1.000000,1.000000 
	C25.020449,1.000000 49.041565,1.000000 73.531342,1.000001 
z"/>
<path fill="#020202" opacity="1.000000" stroke="none" 
	d="
M92.468658,165.000000 
	C92.726479,164.393784 93.396027,163.347000 94.187637,163.244690 
	C129.777817,158.645233 159.116745,129.137390 163.262085,93.594345 
	C163.348770,92.851051 163.926498,92.165024 164.637573,91.726135 
	C165.000000,116.260201 165.000000,140.520401 165.000000,165.000000 
	C140.979553,165.000000 116.958435,165.000000 92.468658,165.000000 
z"/>
<path fill="#020202" opacity="1.000000" stroke="none" 
	d="
M1.000000,92.468658 
	C1.630568,92.892731 2.676182,93.718842 2.831715,94.687820 
	C8.426812,129.545685 33.507336,155.761047 67.964508,162.688629 
	C70.176620,163.133377 72.355614,163.742920 74.275009,164.637909 
	C49.739799,165.000000 25.479595,165.000000 1.000000,165.000000 
	C1.000000,140.979553 1.000000,116.958435 1.000000,92.468658 
z"/>
<path fill="#020202" opacity="1.000000" stroke="none" 
	d="
M165.000000,73.531342 
	C164.369431,73.107277 163.323639,72.281120 163.168304,71.312210 
	C157.582764,36.470703 132.486801,10.239163 98.035492,3.311370 
	C95.823387,2.866540 93.644394,2.257064 91.724998,1.362090 
	C116.260201,1.000000 140.520401,1.000000 165.000000,1.000000 
	C165.000000,25.020449 165.000000,49.041565 165.000000,73.531342 
z"/>
<path fill="#38365E" opacity="1.000000" stroke="none" 
	d="
M57.016407,112.046761 
	C61.601318,113.511436 65.798843,114.880226 69.996361,116.249016 
	C69.879311,116.837189 69.762253,117.425354 69.645203,118.013527 
	C52.840591,115.399292 36.035984,112.785057 18.731230,110.093018 
	C23.923700,90.196335 28.979300,70.824120 34.101898,51.195171 
	C37.405933,53.959747 38.317520,56.624691 37.383156,60.661274 
	C34.165012,74.564072 31.463539,88.586464 28.454926,103.095268 
	C38.030491,106.105034 47.329750,109.027954 57.016407,112.046761 
z"/>
<path fill="#37355D" opacity="1.000000" stroke="none" 
	d="
M121.959198,107.996178 
	C127.232841,106.341377 132.115219,104.773041 137.438538,103.063065 
	C135.134995,91.916611 132.887573,81.040558 130.639557,70.164627 
	C129.999924,67.070068 129.669144,63.867970 128.640884,60.908295 
	C127.295341,57.035282 128.220123,54.128838 131.796631,51.198307 
	C136.917023,70.782234 141.961960,90.077576 147.185745,110.056931 
	C130.048065,112.747177 113.196106,115.392578 96.344139,118.037971 
	C96.199646,117.431854 96.055161,116.825737 95.910675,116.219620 
	C104.463089,113.507294 113.015503,110.794968 121.959198,107.996178 
z"/>
<path fill="#333771" opacity="1.000000" stroke="none" 
	d="
M53.588821,106.363297 
	C47.379391,103.894157 41.518185,101.591476 35.274143,99.138390 
	C36.828339,90.604713 38.346050,82.310402 39.848061,74.013260 
	C41.348442,65.725128 42.833103,57.434139 44.375256,48.863194 
	C48.422813,51.230614 48.197407,54.562149 47.706203,58.109707 
	C46.086182,69.809845 44.653488,81.536713 42.937138,93.222214 
	C42.476719,96.356880 43.247250,97.953377 46.256313,99.280586 
	C52.945709,102.231056 59.426624,105.655128 65.983482,108.904388 
	C67.382271,109.597557 68.742592,110.368332 70.120636,111.103355 
	C69.902031,111.583725 69.683418,112.064095 69.464813,112.544472 
	C64.288895,110.539566 59.112972,108.534668 53.588821,106.363297 
z"/>
<path fill="#323670" opacity="1.000000" stroke="none" 
	d="
M113.102097,106.063553 
	C108.448990,107.754349 104.166702,109.334442 99.884415,110.914536 
	C99.655014,110.379318 99.425606,109.844101 99.196205,109.308891 
	C105.390717,106.233116 111.407608,102.693741 117.836853,100.230675 
	C122.832222,98.316933 123.553467,95.500496 122.795380,90.774536 
	C121.003632,79.604744 119.503929,68.380569 118.247482,57.138000 
	C117.951317,54.488026 119.083649,51.678410 119.558838,48.942230 
	C120.198692,48.958046 120.838547,48.973862 121.478401,48.989677 
	C122.382797,53.909565 123.288147,58.829281 124.191391,63.749382 
	C126.113884,74.221428 127.958763,84.708672 130.006073,95.156258 
	C130.582718,98.098969 130.021347,99.703979 126.948982,100.701897 
	C122.371368,102.188698 117.956833,104.177582 113.102097,106.063553 
z"/>
<path fill="#117EB0" opacity="1.000000" stroke="none" 
	d="
M54.896225,87.806503 
	C54.209648,91.398193 55.281200,93.461967 58.083370,95.270340 
	C63.387817,98.693558 68.402054,102.567581 73.521683,106.275269 
	C74.751266,107.165749 75.921402,108.138321 77.118874,109.073143 
	C76.877014,109.427650 76.635162,109.782166 76.393303,110.136673 
	C67.296295,105.141098 58.140350,100.246147 49.187954,95.003616 
	C48.229446,94.442307 48.029373,91.806870 48.208057,90.215637 
	C49.042599,82.783783 50.111332,75.377647 51.139015,67.968231 
	C52.165798,60.565311 53.243214,53.169407 55.493729,45.484581 
	C56.036049,47.814655 57.132584,50.170082 57.027348,52.470535 
	C56.495148,64.104218 55.650414,75.723610 54.896225,87.806503 
z"/>
<path fill="#107EAF" opacity="1.000000" stroke="none" 
	d="
M113.263000,97.142075 
	C106.334541,100.896812 99.746162,104.480865 93.157784,108.064919 
	C92.847786,107.519691 92.537781,106.974457 92.227776,106.429230 
	C97.215134,102.841728 102.060448,99.029984 107.241493,95.748260 
	C110.510574,93.677582 111.427147,91.301132 111.114540,87.542625 
	C110.150856,75.956612 109.482002,64.343246 108.906952,52.730194 
	C108.796120,50.491936 109.629440,48.206924 110.027214,45.943485 
	C110.553024,45.968479 111.078835,45.993477 111.604645,46.018471 
	C112.714218,53.755089 113.844299,61.488838 114.927101,69.229202 
	C115.846703,75.802879 116.463516,82.431007 117.691963,88.944962 
	C118.456390,92.998421 117.618706,95.640862 113.263000,97.142075 
z"/>
<path fill="#3B5698" opacity="1.000000" stroke="none" 
	d="
M98.822014,63.505089 
	C98.370117,62.786255 97.905869,62.444443 97.441628,62.102631 
	C96.234001,64.074699 95.026367,66.046761 93.145424,69.118347 
	C91.977219,67.002106 91.036308,65.297615 89.976822,63.378319 
	C88.430801,64.790627 87.701317,65.457031 86.112984,66.907990 
	C87.196907,61.737820 88.049942,57.668949 89.105331,52.634880 
	C91.171387,56.247921 92.769257,59.042217 94.548340,62.153423 
	C96.576599,58.754311 98.468491,55.583725 100.360382,52.413139 
	C100.901009,52.571095 101.441643,52.729053 101.982269,52.887009 
	C102.622200,58.665955 103.262131,64.444901 103.953392,70.687454 
	C102.044533,70.865204 100.508331,71.008255 98.809662,71.166435 
	C98.809662,68.443192 98.809662,66.162651 98.822014,63.505089 
z"/>
<path fill="#334F94" opacity="1.000000" stroke="none" 
	d="
M65.155846,76.616997 
	C65.316475,76.647881 65.483612,76.659828 65.636765,76.712471 
	C68.399734,77.662163 73.227661,86.856705 71.929176,89.199226 
	C71.507172,89.960533 69.784523,90.000885 68.048370,89.831863 
	C67.298279,87.281311 70.561600,83.664154 64.997147,83.910477 
	C64.582260,84.424866 64.204926,85.221085 63.477257,86.095413 
	C61.630566,88.124367 60.787666,89.948494 64.379982,90.941605 
	C64.817398,90.599655 64.932785,90.291161 65.020554,89.979523 
	C64.992935,89.976372 64.983109,90.030815 65.395767,90.202072 
	C66.547462,90.247879 67.286484,90.122421 68.025505,89.996964 
	C66.142525,91.643402 64.259537,93.289848 62.376556,94.936295 
	C61.835873,94.583008 61.295185,94.229713 60.754501,93.876427 
	C60.489574,88.197403 60.157845,82.519547 60.058239,76.837631 
	C60.047741,76.238754 61.403343,75.615936 62.561371,75.448502 
	C63.063965,77.012817 63.130341,78.132866 63.196720,79.252914 
	C63.434734,79.317383 63.672752,79.381851 63.910767,79.446327 
	C64.325790,78.503212 64.740822,77.560104 65.155846,76.616997 
z"/>
<path fill="#375396" opacity="1.000000" stroke="none" 
	d="
M66.810890,58.058285 
	C67.467781,59.281013 68.246147,60.455540 68.754723,61.737122 
	C69.643517,63.976803 71.278023,66.490387 70.823082,68.483604 
	C70.542122,69.714600 66.973267,70.195152 64.430229,70.698639 
	C63.733749,69.908997 63.487526,69.433311 63.241299,68.957626 
	C63.241299,68.957626 63.113895,68.536873 63.442383,68.381805 
	C64.762451,67.143097 65.754028,66.059448 66.745613,64.975800 
	C65.103111,63.174400 63.020210,61.593071 61.971725,59.494843 
	C61.263443,58.077431 61.536034,55.672344 62.322369,54.227394 
	C62.684715,53.561562 65.328125,54.137081 66.971870,54.809731 
	C67.007942,55.652973 67.009392,55.836216 67.010834,56.019463 
	C67.010834,56.019463 67.055031,56.010094 66.723488,56.006699 
	C65.552963,56.072716 64.713974,56.142136 62.502670,56.325096 
	C64.815453,57.255524 65.813171,57.656906 66.810890,58.058285 
z"/>
<path fill="#3C5798" opacity="1.000000" stroke="none" 
	d="
M81.973083,89.945724 
	C80.553963,87.697266 78.760307,85.590828 77.836411,83.154572 
	C77.121178,81.268555 77.258827,78.931984 77.587433,76.887337 
	C77.651123,76.491028 80.347969,76.517914 81.632988,76.665733 
	C80.871063,77.189308 80.306343,77.396751 79.741623,77.604195 
	C80.523987,78.073456 81.306358,78.542717 81.991592,79.337860 
	C82.272911,80.755844 82.651360,81.847954 83.029808,82.940063 
	C83.387573,83.445793 83.842697,83.908951 84.085808,84.464828 
	C85.013123,86.585144 86.980034,89.093437 86.437744,90.771347 
	C85.919586,92.374596 82.763496,93.125290 80.472473,93.842941 
	C80.815308,92.534042 81.452599,91.632927 82.079559,90.532486 
	C82.069221,90.333160 81.973083,89.945724 81.973083,89.945724 
z"/>
<path fill="#3B5698" opacity="1.000000" stroke="none" 
	d="
M101.937691,92.635910 
	C97.825371,93.975342 95.038704,92.233185 93.293297,89.252884 
	C91.123451,85.547874 92.768616,80.255264 96.792694,77.635025 
	C95.939995,81.701782 93.151047,86.153740 98.418152,88.363358 
	C99.891510,88.981445 102.237297,87.519913 104.875244,86.831734 
	C106.558830,89.134651 103.815163,90.805298 101.937691,92.635910 
z"/>
<path fill="#565477" opacity="1.000000" stroke="none" 
	d="
M77.528923,117.171783 
	C76.268631,117.877937 75.360374,118.402832 74.452118,118.927719 
	C74.206665,118.550781 73.961205,118.173836 73.715752,117.796898 
	C75.302628,115.314812 77.892426,114.138229 80.916458,113.668701 
	C85.439293,112.966461 89.124916,114.464890 91.732628,117.365768 
	C87.215485,117.243393 82.548218,117.116959 77.528923,117.171783 
z"/>
<path fill="#3F599A" opacity="1.000000" stroke="none" 
	d="
M77.155487,70.074532 
	C76.952675,66.745819 76.826019,63.773247 77.078979,60.833336 
	C77.125526,60.292328 79.183090,59.267563 79.507271,59.516136 
	C81.317459,60.904140 79.590981,69.158493 77.155487,70.074532 
z"/>
<path fill="#798BB8" opacity="1.000000" stroke="none" 
	d="
M82.088722,79.011978 
	C81.306358,78.542717 80.523987,78.073456 79.741623,77.604195 
	C80.306343,77.396751 80.871063,77.189308 81.753860,76.986137 
	C83.973465,77.266022 86.354095,75.169083 87.454773,78.496796 
	C85.493637,78.913300 83.791183,78.962639 82.088722,79.011978 
z"/>
<path fill="#BFC8DD" opacity="1.000000" stroke="none" 
	d="
M69.003792,54.943939 
	C70.050621,54.775257 71.097443,54.606575 72.144272,54.437889 
	C71.836304,55.825329 71.528336,57.212772 71.220375,58.600220 
	C70.494919,58.297096 69.769463,57.993973 69.069321,57.022728 
	C69.064346,55.884388 69.034073,55.414162 69.003792,54.943939 
z"/>
<path fill="#EAEDF4" opacity="1.000000" stroke="none" 
	d="
M81.991592,79.337860 
	C83.791183,78.962639 85.493637,78.913300 87.529373,78.783386 
	C86.323235,79.888962 84.783829,81.075119 83.137115,82.600677 
	C82.651360,81.847954 82.272911,80.755844 81.991592,79.337860 
z"/>
<path fill="#BDC6DC" opacity="1.000000" stroke="none" 
	d="
M82.089890,90.731812 
	C81.452599,91.632927 80.815308,92.534042 80.077286,93.724030 
	C76.298981,94.258118 76.792572,91.696465 77.336441,89.465591 
	C79.463280,89.083397 79.647987,93.915108 82.089890,90.731812 
z"/>
<path fill="#6479AD" opacity="1.000000" stroke="none" 
	d="
M82.079559,90.532486 
	C79.647987,93.915108 79.463280,89.083397 77.642014,89.225388 
	C78.767357,89.178596 80.045013,89.428497 81.647873,89.812057 
	C81.973083,89.945724 82.069221,90.333160 82.079559,90.532486 
z"/>
<path fill="#3F5999" opacity="1.000000" stroke="none" 
	d="
M65.157516,76.297180 
	C64.740822,77.560104 64.325790,78.503212 63.910767,79.446327 
	C63.672752,79.381851 63.434734,79.317383 63.196720,79.252914 
	C63.130341,78.132866 63.063965,77.012817 62.993011,75.528389 
	C63.712021,75.435135 64.435600,75.706253 65.157516,76.297180 
z"/>
<path fill="#CCD3E4" opacity="1.000000" stroke="none" 
	d="
M66.398460,65.033226 
	C65.754028,66.059448 64.762451,67.143097 63.417374,68.163429 
	C62.998322,67.946236 62.932770,67.792351 62.915985,67.332214 
	C62.964760,67.025955 63.095417,66.908867 63.095417,66.908867 
	C64.080711,66.302795 65.066010,65.696724 66.398460,65.033226 
z"/>
<path fill="#667BAE" opacity="1.000000" stroke="none" 
	d="
M66.892502,57.730305 
	C65.813171,57.656906 64.815453,57.255524 62.502670,56.325096 
	C64.713974,56.142136 65.552963,56.072716 66.729134,56.028572 
	C67.035583,56.503338 67.004852,56.952831 66.892502,57.730305 
z"/>
<path fill="#CCD3E4" opacity="1.000000" stroke="none" 
	d="
M62.950298,69.049347 
	C63.487526,69.433311 63.733749,69.908997 64.018921,70.675308 
	C63.309658,70.844032 62.561443,70.722137 61.813232,70.600243 
	C62.095253,70.113853 62.377277,69.627457 62.950298,69.049347 
z"/>
<path fill="#4F67A2" opacity="1.000000" stroke="none" 
	d="
M68.675262,54.959572 
	C69.034073,55.414162 69.064346,55.884388 69.049416,56.707348 
	C68.527428,56.757271 68.050652,56.454456 67.292358,56.085556 
	C67.009392,55.836216 67.007942,55.652973 67.021683,55.195251 
	C67.473495,54.938915 67.910118,54.957062 68.675262,54.959572 
z"/>
<path fill="#CCD3E4" opacity="1.000000" stroke="none" 
	d="
M62.897297,67.082016 
	C62.664513,66.674942 62.499187,66.211792 62.333862,65.748650 
	C62.563274,65.967728 62.792686,66.186798 63.058758,66.657364 
	C63.095417,66.908867 62.964760,67.025955 62.897297,67.082016 
z"/>
<path fill="#F2F3F8" opacity="1.000000" stroke="none" 
	d="
M65.034691,84.192291 
	C70.561600,83.664154 67.298279,87.281311 67.708252,89.669250 
	C67.976547,90.045769 67.973923,89.993103 67.999710,89.995033 
	C67.286484,90.122421 66.547462,90.247879 65.308266,89.863693 
	C64.864952,88.891823 64.921806,88.429596 65.262268,87.835968 
	C65.390793,87.109230 65.235718,86.513885 65.055634,85.959496 
	C65.030632,86.000443 65.091339,85.918938 65.113037,85.630783 
	C65.101395,84.959175 65.068039,84.575737 65.034691,84.192291 
z"/>
<path fill="#3F5999" opacity="1.000000" stroke="none" 
	d="
M64.978661,87.967361 
	C64.921806,88.429596 64.864952,88.891823 64.895599,89.692436 
	C64.983109,90.030815 64.992935,89.976372 64.712532,89.954651 
	C64.307404,90.280304 64.182686,90.627686 64.057961,90.975067 
	C60.787666,89.948494 61.630566,88.124367 63.797005,86.111588 
	C64.675163,86.006073 64.883247,85.962509 65.091339,85.918938 
	C65.091339,85.918938 65.030632,86.000443 64.997719,86.298523 
	C64.969421,87.053528 64.974037,87.510445 64.978661,87.967361 
z"/>
<path fill="#7082B3" opacity="1.000000" stroke="none" 
	d="
M65.113037,85.630783 
	C64.883247,85.962509 64.675163,86.006073 64.147331,86.033470 
	C64.204926,85.221085 64.582260,84.424866 64.997147,83.910477 
	C65.068039,84.575737 65.101395,84.959175 65.113037,85.630783 
z"/>
<path fill="#F2F3F8" opacity="1.000000" stroke="none" 
	d="
M64.379982,90.941605 
	C64.182686,90.627686 64.307404,90.280304 64.740158,89.957794 
	C64.932785,90.291161 64.817398,90.599655 64.379982,90.941605 
z"/>
<path fill="#7082B3" opacity="1.000000" stroke="none" 
	d="
M65.262268,87.835968 
	C64.974037,87.510445 64.969421,87.053528 65.022720,86.257584 
	C65.235718,86.513885 65.390793,87.109230 65.262268,87.835968 
z"/>
</svg>